<svg width="85" height="85" viewBox="0 0 85 85" fill="none" xmlns="http://www.w3.org/2000/svg">
<path d="M53.125 17.6115C49.2115 17.6115 46.0417 20.7813 46.0417 24.6948V38.8615C46.0417 42.775 49.2115 45.9448 53.125 45.9448H63.7846L52.1012 61.6402C50.3658 63.9742 52.0295 67.2917 54.9443 67.2917C56.0634 67.2917 57.111 66.7663 57.7804 65.8667L72.9777 45.4537C73.8844 44.2318 74.375 42.7501 74.375 41.2272V24.6948C74.375 20.7813 71.2052 17.6115 67.2917 17.6115H53.125ZM17.7083 17.7083C13.7948 17.7083 10.625 20.8781 10.625 24.7917V38.9583C10.625 42.8719 13.7948 46.0417 17.7083 46.0417H28.3679L16.7537 61.6333C15.0183 63.9708 16.682 67.2917 19.5968 67.2917C20.7159 67.2917 21.7704 66.7663 22.4398 65.8667L37.561 45.5505C38.4677 44.3287 38.9583 42.8505 38.9583 41.3241V24.7917C38.9583 20.8781 35.7885 17.7083 31.875 17.7083H17.7083Z" fill="#00F7AD"/>
</svg>
