<svg width="68" height="68" viewBox="0 0 68 68" fill="none" xmlns="http://www.w3.org/2000/svg">
<path d="M63 38.5C65.4853 38.5 67.5 36.4853 67.5 34C67.5 31.5147 65.4853 29.5 63 29.5L63 38.5ZM1.81802 30.818C0.0606614 32.5754 0.0606612 35.4246 1.81802 37.182L30.4558 65.8198C32.2132 67.5772 35.0624 67.5772 36.8198 65.8198C38.5772 64.0624 38.5772 61.2132 36.8198 59.4558L11.364 34L36.8198 8.54415C38.5772 6.78679 38.5772 3.93755 36.8198 2.18019C35.0624 0.422834 32.2132 0.422834 30.4558 2.18019L1.81802 30.818ZM63 29.5L5 29.5L5 38.5L63 38.5L63 29.5Z" fill="#00F7AD"/>
</svg>
