<svg width="46" height="46" viewBox="0 0 46 46" fill="none" xmlns="http://www.w3.org/2000/svg">
<path d="M36.7461 3.83334C35.3589 3.83334 33.9717 4.36162 32.9128 5.42058L30.6667 7.66668L38.3333 15.3333L40.5794 13.0872C42.6954 10.9712 42.6954 7.5385 40.5794 5.42058C39.5205 4.36162 38.1333 3.83334 36.7461 3.83334ZM27.7917 10.5417L9.58333 28.75C9.58333 28.75 11.5096 28.7596 12.4583 29.7083C13.4071 30.6571 13.3867 32.5534 13.3867 32.5534C13.3867 32.5534 15.341 32.591 16.2917 33.5417C17.2423 34.4923 17.25 36.4167 17.25 36.4167L35.4583 18.2083L27.7917 10.5417ZM7.03401 32.5833L5.7762 39.2992C5.67461 39.8473 6.15267 40.3254 6.70084 40.2238L13.4167 38.966L7.03401 32.5833Z" fill="white"/>
</svg>
