<svg width="46" height="46" viewBox="0 0 46 46" fill="none" xmlns="http://www.w3.org/2000/svg">
<path d="M19.32 0C17.807 0 16.56 1.24703 16.56 2.76V3.68H8.91249C7.77687 3.68 6.78499 4.45984 6.41124 5.52C4.4239 5.58469 2.82109 7.21984 2.75999 9.2575C2.79234 9.73906 3.19124 10.12 3.67999 10.12H42.32C42.8087 10.12 43.2112 9.73906 43.24 9.2575C43.1789 7.21984 41.5761 5.58469 39.5887 5.52C39.215 4.45984 38.2231 3.68 37.0875 3.68H29.44V2.76C29.44 1.24703 28.193 0 26.68 0H19.32ZM19.32 1.84H26.68C27.1903 1.84 27.6 2.24969 27.6 2.76V3.68H18.4V2.76C18.4 2.24969 18.8097 1.84 19.32 1.84ZM4.85874 11.96L9.40124 43.01C9.64921 44.7458 11.1083 46 12.88 46H33.12C34.8234 46 36.2106 44.8248 36.5987 43.01L41.1412 11.96H4.85874ZM11.2987 15.0075C11.8019 14.9464 12.2655 15.2806 12.3337 15.7838L15.3525 38.6975C15.4172 39.2006 15.0794 39.6678 14.5762 39.7325C14.5367 39.7397 14.472 39.7325 14.4325 39.7325C13.9797 39.7325 13.6023 39.4198 13.5412 38.9562L10.4937 16.0425C10.4255 15.5394 10.7956 15.0758 11.2987 15.0075ZM19.09 15.0075C19.5752 14.9823 20.0459 15.3597 20.0675 15.87L21.0737 38.7838C21.0953 39.2905 20.6892 39.7109 20.1825 39.7325C20.1681 39.7325 20.1681 39.7325 20.1537 39.7325C19.665 39.7325 19.2553 39.3623 19.2337 38.87L18.2275 15.9563C18.2059 15.4495 18.5833 15.0291 19.09 15.0075ZM26.91 15.0075C27.4167 15.0291 27.7941 15.4495 27.7725 15.9563L26.7662 38.87C26.7447 39.3623 26.335 39.7325 25.8462 39.7325C25.8319 39.7325 25.8319 39.7325 25.8175 39.7325C25.3108 39.7109 24.9047 39.2905 24.9262 38.7838L25.9325 15.87C25.9541 15.3633 26.4105 14.9967 26.91 15.0075ZM34.7012 15.0075C35.2044 15.0722 35.5745 15.5394 35.5062 16.0425L32.4587 38.9562C32.3977 39.4198 32.0203 39.7325 31.5675 39.7325C31.528 39.7325 31.4669 39.7397 31.4237 39.7325C30.9206 39.6678 30.5792 39.2006 30.6475 38.6975L33.6662 15.7838C33.7309 15.2806 34.1945 14.9428 34.7012 15.0075Z" fill="white"/>
</svg>
