<svg width="85" height="85" viewBox="0 0 85 85" fill="none" xmlns="http://www.w3.org/2000/svg">
<path d="M31.875 67.3885C35.7885 67.3885 38.9583 64.2187 38.9583 60.3052V46.1385C38.9583 42.225 35.7885 39.0552 31.875 39.0552L21.2154 39.0552L32.8988 23.3598C34.6342 21.0258 32.9705 17.7083 30.0557 17.7083C28.9366 17.7083 27.889 18.2337 27.2196 19.1333L12.0223 39.5463C11.1156 40.7682 10.625 42.2499 10.625 43.7728V60.3052C10.625 64.2187 13.7948 67.3885 17.7083 67.3885H31.875ZM67.2917 67.2917C71.2052 67.2917 74.375 64.1219 74.375 60.2083V46.0417C74.375 42.1281 71.2052 38.9583 67.2917 38.9583H56.6321L68.2463 23.3667C69.9817 21.0292 68.318 17.7083 65.4032 17.7083C64.2841 17.7083 63.2296 18.2337 62.5602 19.1333L47.439 39.4495C46.5323 40.6713 46.0417 42.1495 46.0417 43.6759V60.2083C46.0417 64.1219 49.2115 67.2917 53.125 67.2917H67.2917Z" fill="#00F7AD"/>
</svg>
